<?xml version="1.0" encoding="utf-8"?>
<?xml-stylesheet type="text/xsl" href="rss1.xsl"?>
<rss version="2.0" xmlns:atom="http://www.w3.org/2005/Atom" xmlns:content="http://purl.org/rss/1.0/modules/content/" xmlns:dc="http://purl.org/dc/elements/1.1/" xmlns:media="http://search.yahoo.com/mrss/">
<channel>
 <title>Getty</title>
 <link>http://www.gettyimg.com/</link>
 <atom:link href="http://www.gettyimg.com/" rel="self" type="application/rss+xml" />

 
                <item>
                <title><![CDATA[【SD Live Performances】SDTV - Mariah Carey - It's Like That (Live at Wetten, Dass..? 2005)]]></title>
                <link><![CDATA[https://sharemania.us/threads/mariah-carey-its-like-that-live-at-wetten-dass-2005.226580/]]></link>
                <description><![CDATA[<article>
<blockquote class="messageText SelectQuoteContainer ugc baseHtml">
Requested by <a href="https://sharemania.us/members/705/" class="username" data-user="705, @SCANDAL">@SCANDAL</a><br>
<br>
<img src="https://lh3.googleusercontent.com/drive-viewer/AITFw-y13GqDEFaa8gVIU8NGQgyeTAVUWulPM_u1tCxjO3EttGQLBsbdroz-2rC_UJXInOW-c3zhYQeITkyRJ8_BcTuHxZl5=s1600" class="bbCodeImage LbImage" alt="[​IMG]" data-url="https://lh3.googleusercontent.com/drive-viewer/AITFw-y13GqDEFaa8gVIU8NGQgyeTAVUWulPM_u1tCxjO3EttGQLBsbdroz-2rC_UJXInOW-c3zhYQeITkyRJ8_BcTuHxZl5=s1600" style=""> <br>
<div class="ToggleTriggerAnchor bbCodeSpoilerContainer">
<button type="button" class="button bbCodeSpoilerButton ToggleTrigger Tooltip JsOnly" data-target="> .SpoilerTarget"><span>Spoiler: <span class="SpoilerTitle">Media Info</span></span></button>
<div class="SpoilerTarget bbCodeSpoilerText">
<div class="bbCodeBlock bbCodeCode">
<div class="type">Code:</div>
<pre>General
Complete name                            : Mariah Carey - It's Like That (Wetten, Dass).mpg
Format                                   : MPEG-PS
File size                                : 206 MiB
Duration                                 : 3 min 15 s
Overall bit rate mode                    : Variable
Overall bit rate                         : 8 842 kb/s

Video
ID                                       : 224 (0xE0)
Format                                   : MPEG Video
Format version                           : Version 2
Format profile                           : Main@Main
Format settings, BVOP                    : Yes
Format settings, Matrix                  : Default
Format settings, GOP                     : M=3, N=12
Format settings, picture structure       : Frame
Duration                                 : 3 min 15 s
Bit rate mode                            : Variable
Bit rate                                 : 7 130 kb/s
Maximum bit rate                         : 8 000 kb/s
Width                                    : 720 pixels
Height                                   : 576 pixels
Display aspect ratio                     : 4:3
Frame rate                               : 25.000 FPS
Standard                                 : PAL
Color space                              : YUV
Chroma subsampling                       : 4:2:0
Bit depth                                : 8 bits
Scan type                                : Interlaced
Scan order                               : Bottom Field First
Compression mode                         : Lossy
Bits/(Pixel*Frame)                       : 0.688
Time code of first frame                 : 00:00:00:00
Time code source                         : Group of pictures header
GOP, Open/Closed                         : Open
GOP, Open/Closed of first frame          : Closed
Stream size                              : 166 MiB (81%)
Color primaries                          : BT.601 PAL
Transfer characteristics                 : BT.470 System B, BT.470 System G
Matrix coefficients                      : BT.601

Audio
ID                                       : 189 (0xBD)-160 (0xA0)
Format                                   : PCM
Format settings, Endianness              : Big
Format settings, Sign                    : Signed
Muxing mode                              : DVD-Video
Duration                                 : 3 min 15 s
Bit rate mode                            : Constant
Bit rate                                 : 1 536 kb/s
Channel(s)                               : 2 channels
Sampling rate                            : 48.0 kHz
Bit depth                                : 16 bits
Stream size                              : 35.9 MiB (17%)
</pre>
</div></div>
</div>
<div class="bbCodeBlock bbCodeVfcHH HiddenContent">
<div class="attribution type">Hidden Content:</div>
<blockquote>You must either reply or click 'Like' to see the hidden information contained here.</blockquote>
</div>
<div class="messageTextEndMarker">&nbsp;</div>
</blockquote>
</article>]]></description>
                <author><![CDATA[jempolgede]]></author>
                </item>

                </channel></rss>